HIERARCHY
ROOT joint_Root
{
	OFFSET 0.0 0.0 0.0
	CHANNELS 6 Xposition Yposition Zposition Zrotation Xrotation Yrotation 
	JOINT Hips
	{
		OFFSET -17.1583 93.1646 452.98
		CHANNELS 6 Xposition Yposition Zposition Zrotation Xrotation Yrotation 
		JOINT Spine
		{
			OFFSET 15.7357 0.0 0.0
			CHANNELS 6 Xposition Yposition Zposition Zrotation Xrotation Yrotation 
			JOINT Chest
			{
				OFFSET 8.98455 -0.406207 0.0
				CHANNELS 6 Xposition Yposition Zposition Zrotation Xrotation Yrotation 
				JOINT Neck
				{
					OFFSET 16.3773 0.0 0.0
					CHANNELS 6 Xposition Yposition Zposition Zrotation Xrotation Yrotation 
					JOINT Head
					{
						OFFSET 6.45672 0.0 0.0
						CHANNELS 6 Xposition Yposition Zposition Zrotation Xrotation Yrotation 
						End Site
						{
							OFFSET 0.0 0.0 0.0
						}
					}
				}
				JOINT Shoulder_L
				{
					OFFSET 12.9942 -0.242716 4.98039
					CHANNELS 6 Xposition Yposition Zposition Zrotation Xrotation Yrotation 
					JOINT UpperArm_L
					{
						OFFSET 5.34809 0.0 0.0
						CHANNELS 6 Xposition Yposition Zposition Zrotation Xrotation Yrotation 
						JOINT LowerArm_L
						{
							OFFSET 24.3286 1.87007e-05 0.0
							CHANNELS 6 Xposition Yposition Zposition Zrotation Xrotation Yrotation 
							JOINT Hand_L
							{
								OFFSET 22.2916 0.0 0.0
								CHANNELS 6 Xposition Yposition Zposition Zrotation Xrotation Yrotation 
								End Site
								{
									OFFSET 0.0 0.0 0.0
								}
							}
						}
					}
				}
				JOINT Shoulder_R
				{
					OFFSET 12.9945 -0.242716 -4.98039
					CHANNELS 6 Xposition Yposition Zposition Zrotation Xrotation Yrotation 
					JOINT UpperArm_R
					{
						OFFSET -5.34813 0.0 0.0
						CHANNELS 6 Xposition Yposition Zposition Zrotation Xrotation Yrotation 
						JOINT LowerArm_R
						{
							OFFSET -24.3289 0.000322201 0.0
							CHANNELS 6 Xposition Yposition Zposition Zrotation Xrotation Yrotation 
							JOINT Hand_R
							{
								OFFSET -22.2915 -0.000108084 0.0
								CHANNELS 6 Xposition Yposition Zposition Zrotation Xrotation Yrotation 
								End Site
								{
									OFFSET 0.0 0.0 0.0
								}
							}
						}
					}
				}
			}
		}
		JOINT UpperLeg_L
		{
			OFFSET -2.19248 -6.46944 0.0
			CHANNELS 6 Xposition Yposition Zposition Zrotation Xrotation Yrotation 
			JOINT LowerLeg_L
			{
				OFFSET 39.0811 0.0 -1.23785e-05
				CHANNELS 6 Xposition Yposition Zposition Zrotation Xrotation Yrotation 
				JOINT Foot_L
				{
					OFFSET 40.9854 0.0 -1.26872e-05
					CHANNELS 6 Xposition Yposition Zposition Zrotation Xrotation Yrotation 
					JOINT Toes_L
					{
						OFFSET 11.7543 0.0 0.0
						CHANNELS 6 Xposition Yposition Zposition Zrotation Xrotation Yrotation 
						End Site
						{
							OFFSET 0.0 0.0 0.0
						}
					}
				}
			}
		}
		JOINT UpperLeg_R
		{
			OFFSET -2.19251 6.46944 0.0
			CHANNELS 6 Xposition Yposition Zposition Zrotation Xrotation Yrotation 
			JOINT LowerLeg_R
			{
				OFFSET -39.0811 -0.00228153 -0.0401928
				CHANNELS 6 Xposition Yposition Zposition Zrotation Xrotation Yrotation 
				JOINT Foot_R
				{
					OFFSET -40.9854 0.0 0.0
					CHANNELS 6 Xposition Yposition Zposition Zrotation Xrotation Yrotation 
					JOINT Toes_R
					{
						OFFSET -11.7543 0.0 0.0
						CHANNELS 6 Xposition Yposition Zposition Zrotation Xrotation Yrotation 
						End Site
						{
							OFFSET 0.0 0.0 0.0
						}
					}
				}
			}
		}
	}
}
MOTION
Frames:	4
Frame Time:	0.0333333
0.000000 0.000000 0.000000 0.000000 0.000000 -0.000000 -4.414790 93.086800 -0.739865 84.342700 -6.198980 2.329340 15.735700 0.000005 -0.000001 77.380100 87.364000 -84.334200 8.984550 -0.406207 -0.000000 -2.615150 -0.523201 -13.920100 16.377300 -0.000001 -0.000001 -3.461540 1.440780 -6.632270 6.456720 -0.000001 -0.000000 -1.108150 5.702720 -12.762300 12.994200 -0.242716 4.980390 -92.556600 9.116850 -74.262000 5.348090 -0.000007 -0.000001 -50.697700 -14.232200 7.173190 24.328600 0.000019 0.000005 7.959660 19.135600 -23.100200 22.291600 -0.000001 0.000005 8.272000 4.862680 10.114400 12.994500 -0.242716 -4.980390 93.400000 -6.283030 -61.503800 -5.348130 -0.000001 -0.000004 -38.852800 -62.882000 -80.865100 -24.328900 0.000322 -0.000009 -0.001051 -13.825600 -0.000078 -22.291500 -0.000108 -0.000004 49.843600 5.511490 -7.004130 -2.192480 -6.469440 -0.000000 -166.421000 -7.719590 2.129780 39.081100 -0.000007 -0.000012 -0.007764 0.028554 15.211300 40.985400 -0.000006 -0.000013 -4.323280 11.015300 -68.996100 11.754300 -0.000000 0.000003 -0.000334 0.173074 -9.556730 -2.192510 6.469440 -0.000001 -177.654000 6.303550 -177.861000 -39.081100 -0.002282 -0.040193 -0.008766 0.061715 11.095700 -40.985400 0.000008 0.000006 -5.845850 13.804600 -64.530200 -11.754300 -0.000006 -0.000006 -0.007615 0.252524 -6.318470
0.000000 0.000000 0.000000 0.000000 0.000000 -0.000000 -4.442370 93.071000 -0.747547 84.346900 -6.038610 2.512510 15.735700 0.000005 -0.000001 76.423000 87.233900 -83.372300 8.984550 -0.406207 -0.000000 -2.392060 -0.684000 -13.912000 16.377300 -0.000001 -0.000001 -3.490630 1.365660 -6.708630 6.456720 -0.000001 -0.000000 -1.333820 5.684320 -12.695600 12.994200 -0.242716 4.980390 -92.589100 9.255940 -74.297200 5.348090 -0.000007 -0.000001 -51.035100 -14.163400 7.345920 24.328600 0.000019 0.000005 8.106050 19.250100 -23.364500 22.291600 -0.000001 0.000005 7.956870 4.871370 9.944040 12.994500 -0.242716 -4.980390 93.370600 -6.214140 -61.449500 -5.348130 -0.000001 -0.000004 -38.190500 -63.050500 -80.224500 -24.328900 0.000322 -0.000009 -0.001048 -13.771800 -0.000078 -22.291500 -0.000108 -0.000004 49.332000 5.512930 -7.064030 -2.192480 -6.469440 -0.000000 -166.391000 -7.564820 2.164410 39.081100 -0.000007 -0.000012 -0.008459 0.030766 15.372500 40.985400 -0.000006 -0.000013 -4.325030 11.047700 -69.004100 11.754300 -0.000000 0.000003 -0.000286 0.172301 -9.588130 -2.192510 6.469440 -0.000001 -177.619000 6.188590 -177.786000 -39.081100 -0.002282 -0.040193 -0.008693 0.060119 11.315200 -40.985400 0.000008 0.000006 -5.775890 13.525700 -64.695200 -11.754300 -0.000006 -0.000006 -0.007606 0.252455 -6.321300
0.000000 0.000000 0.000000 0.000000 0.000000 -0.000000 -4.451580 93.059800 -0.754071 84.380100 -5.873650 2.645600 15.735700 0.000005 -0.000001 75.667300 87.131100 -82.623900 8.984550 -0.406207 -0.000000 -2.218250 -0.815669 -13.927600 16.377300 -0.000001 -0.000001 -3.534800 1.246980 -6.628650 6.456720 -0.000001 -0.000000 -1.497760 5.680790 -12.839100 12.994200 -0.242716 4.980390 -92.622400 9.400520 -74.335600 5.348090 -0.000007 -0.000001 -51.441100 -13.675000 7.435270 24.328600 0.000019 0.000005 8.151700 19.289700 -23.442000 22.291600 -0.000001 0.000005 7.835500 4.884520 9.685290 12.994500 -0.242716 -4.980390 93.348500 -6.164880 -61.417100 -5.348130 -0.000001 -0.000004 -37.582000 -63.250400 -79.488000 -24.328900 0.000322 -0.000009 -0.001040 -13.584700 -0.000077 -22.291500 -0.000108 -0.000004 48.986100 5.508120 -6.863580 -2.192480 -6.469440 -0.000000 -166.407000 -7.434520 2.189560 39.081100 -0.000007 -0.000012 -0.008555 0.030912 15.468200 40.985400 -0.000006 -0.000013 -4.317220 11.102500 -69.021400 11.754300 -0.000000 0.000003 -0.000450 0.174890 -9.482950 -2.192510 6.469440 -0.000001 -177.627000 6.098320 -177.738000 -39.081100 -0.002282 -0.040193 -0.008485 0.058169 11.487200 -40.985400 0.000008 0.000006 -5.722790 13.277400 -64.826100 -11.754300 -0.000006 -0.000006 -0.007366 0.250439 -6.403590
0.000000 0.000000 0.000000 0.000000 0.000000 -0.000000 -4.464330 93.053500 -0.763051 84.410000 -5.712990 2.747550 15.735700 0.000005 -0.000001 74.846600 87.046100 -81.803800 8.984550 -0.406207 -0.000000 -2.083270 -0.947676 -13.929600 16.377300 -0.000001 -0.000001 -3.558710 1.216670 -6.642450 6.456720 -0.000001 -0.000000 -1.581920 5.687780 -12.818800 12.994200 -0.242716 4.980390 -92.649100 9.527820 -74.383100 5.348090 -0.000007 -0.000001 -51.871100 -13.128800 7.484370 24.328600 0.000019 0.000005 8.210630 19.408900 -23.471000 22.291600 -0.000001 0.000005 7.339620 4.888940 9.597220 12.994500 -0.242716 -4.980390 93.338500 -6.147010 -61.420000 -5.348130 -0.000001 -0.000004 -37.213600 -63.484000 -78.989700 -24.328900 0.000322 -0.000009 -0.001049 -13.541300 -0.000076 -22.291500 -0.000108 -0.000004 48.545700 5.505660 -6.763340 -2.192480 -6.469440 -0.000000 -166.415000 -7.306890 2.221590 39.081100 -0.000007 -0.000012 -0.008463 0.030524 15.495200 40.985400 -0.000006 -0.000013 -4.315450 11.188100 -69.001700 11.754300 -0.000000 0.000003 -0.000271 0.172067 -9.597620 -2.192510 6.469440 -0.000001 -177.636000 6.088560 -177.694000 -39.081100 -0.002282 -0.040193 -0.008265 0.056502 11.602800 -40.985400 0.000008 0.000006 -5.650100 13.110900 -64.943200 -11.754300 -0.000006 -0.000006 -0.007540 0.251899 -6.343980
